<?xml version="1.0" encoding="UTF-8" standalone="no"?>
<!-- Created with Inkscape (http://www.inkscape.org/) -->

<svg
   xmlns:dc="http://purl.org/dc/elements/1.1/"
   xmlns:cc="http://creativecommons.org/ns#"
   xmlns:rdf="http://www.w3.org/1999/02/22-rdf-syntax-ns#"
   xmlns:svg="http://www.w3.org/2000/svg"
   xmlns="http://www.w3.org/2000/svg"
   xmlns:sodipodi="http://sodipodi.sourceforge.net/DTD/sodipodi-0.dtd"
   xmlns:inkscape="http://www.inkscape.org/namespaces/inkscape"
   width="210mm"
   height="297mm"
   viewBox="0 0 210 297"
   version="1.1"
   id="svg8"
   inkscape:version="0.92+devel (b071ae7561, 2017-11-25, custom)"
   sodipodi:docname="GeorgeIngram.svg">
  <style
     id="style23">.start { stroke-dashoffset: 1000; stroke-dasharray: 1000 5000; trantstion: 7s linear;  }
</style>
  <defs
     id="defs2" />
  <sodipodi:namedview
     id="base"
     pagecolor="#ffffff"
     bordercolor="#666666"
     borderopacity="1.0"
     inkscape:pageopacity="0.0"
     inkscape:pageshadow="2"
     inkscape:zoom="1.4"
     inkscape:cx="171.8109"
     inkscape:cy="649.43218"
     inkscape:document-units="mm"
     inkscape:current-layer="layer1"
     showgrid="false"
     inkscape:window-width="1366"
     inkscape:window-height="705"
     inkscape:window-x="-8"
     inkscape:window-y="-8"
     inkscape:window-maximized="1"
     inkscape:document-rotation="0" />
  <metadata
     id="metadata5">
    <rdf:RDF>
      <cc:Work
         rdf:about="">
        <dc:format>image/svg+xml</dc:format>
        <dc:type
           rdf:resource="http://purl.org/dc/dcmitype/StillImage" />
        <dc:title></dc:title>
      </cc:Work>
    </rdf:RDF>
  </metadata>
  <g
     inkscape:label="Layer 1"
     inkscape:groupmode="layer"
     id="layer1">
    <text
       xml:space="preserve"
       style="font-style:normal;font-weight:normal;font-size:43.33571243px;line-height:1.25;font-family:sans-serif;letter-spacing:0px;word-spacing:0px;fill:#000000;fill-opacity:1;stroke:none;stroke-width:1.08339274"
       x="23.62685"
       y="114.47854"
       id="text12"
       transform="scale(0.91749565,1.0899234)"><tspan
         sodipodi:role="line"
         id="tspan10"
         x="23.62685"
         y="114.47854"
         style="font-style:normal;font-variant:normal;font-weight:normal;font-stretch:normal;font-size:40.44666672px;line-height:4.25;font-family:'Sexy Beauty';-inkscape-font-specification:'Sexy Beauty';stroke-width:1.08339274">George Ingram</tspan><tspan
         sodipodi:role="line"
         x="23.62685"
         y="229.85252"
         style="stroke-width:1.08339274"
         id="tspan14" /></text>
    <flowRoot
       xml:space="preserve"
       id="flowRoot16"
       style="fill:black;fill-opacity:1;stroke:none;font-family:sans-serif;font-style:normal;font-weight:normal;font-size:40px;line-height:1.25;letter-spacing:0px;word-spacing:0px"><flowRegion
         id="flowRegion18"><rect
           id="rect20"
           width="142.85715"
           height="137.14285"
           x="297.14285"
           y="351.09113" /></flowRegion><flowPara
         id="flowPara22" /></flowRoot>    <path
       style="fill:none;stroke:#ff0000;stroke-width:1.20000005;stroke-linecap:butt;stroke-linejoin:round;stroke-miterlimit:4;stroke-opacity:1"
       d="m 42.900296,98.184522 c -0.39365,0.224943 -2.864783,-6.749338 -5.669642,-3.779761 -15.497287,16.407379 -13.85629,25.217549 -12.662201,24.568449 -0.367853,1.08352 -1.298632,6.37839 1.133928,4.91369 16.862363,-10.15318 14.9462,-15.17135 14.363094,-13.60714 -9.129025,24.48909 -10.78607,35.52701 -0.566965,18.52083 10.216674,-17.00213 -2.83482,-7.9375 3.590774,-10.96131 6.441594,-3.10173 5.030153,-2.95128 7.748513,-5.29166 3.401785,-5.66965 3.696202,-1.70603 0,0 -2.938603,1.35635 3.792948,-0.74007 2.645832,-3.77976 -1.42616,-3.77912 -4.748465,-3.54799 -8.504463,2.26785 -6.257869,9.68977 -1.774031,13.58729 0.944941,12.66221 6.397255,-2.17655 4.51198,-4.0603 6.992558,-5.85864 6.008253,-4.35578 6.324641,-12.3347 8.315477,-11.33928 0,0 5.669642,-10.583336 0,0 -5.669643,10.58333 -5.696923,5.19964 -5.291667,11.33929 0.217764,3.29912 -1.523665,6.01233 1.889881,5.29166 3.409611,-0.71984 -0.862384,4.35515 2.645834,-0.75595 8.957429,-13.05002 1.889918,0.189 4.157737,-5.85863 2.267803,-6.04759 -1.240766,3.45704 1.889881,-4.72471 2.161701,-5.64947 -1.133927,-6.04761 -1.133927,-6.04761 0,0 -3.616669,0.85537 -4.346727,5.10267 -1.133928,6.59693 10.961309,-3.40178 10.961309,-3.40178 0,0 -0.372154,-3.55032 -3.212797,9.63839 -2.645833,12.28423 0,5.29167 0,5.29167 7.388229,-13.29877 8.504913,-18.77684 7.748512,-13.41816 -1.976139,13.99986 16.063988,-2.45684 14.552082,-2.07886 -1.34897,-0.59964 -8.364765,2.56359 -8.693452,4.53571 l -3.212797,9.07142 v 0 c 2.111266,7.52114 6.561729,-2.89156 10.01637,-5.66963 l -1.889882,11.71726 -2.645833,7.18154 c -1.034935,1.21493 -1.125832,3.05831 -3.590776,1.88988 l -1.133927,-3.40178 3.401787,-5.66965 c 6.390606,-3.0728 12.841775,-6.11532 20.22172,-8.69345 -2.25125,1.94692 -2.6969,4.61609 -7.181544,5.66965 -2.761711,0.80378 -2.433719,-3.027 -3.401785,-4.91369 -0.762402,-3.05986 1.724302,-6.7882 4.535715,-10.58334 2.858654,-2.05559 4.291894,-1.73549 5.669644,-1.32291 l 0.37797,3.96875 -3.0238,3.02381 c -0.926055,2.09776 -2.857649,3.18997 -5.291671,3.77976 L 122.08631,94.215773 c -4.54428,10.583327 -6.39467,20.977677 -8.69345,31.561007 l 1.13392,2.26786 c 2.03597,-7.47643 4.34058,-14.30625 8.88244,-19.27679 -0.67091,4.48344 -4.4571,12.87349 -2.83482,13.22917 -3.27474,7.37554 6.17361,-10.07936 9.82738,-12.6622 -2.08259,11.14599 -2.6723,11.39436 -3.40178,16.44196 l 1.13393,1.88988 16.63095,-20.41071 c -2.07454,0.3722 -2.74663,-1.12553 -9.07143,4.91369 -2.28231,4.55498 -2.50393,6.36238 -3.40179,9.07143 0.86059,1.198 1.67612,2.53118 3.02381,2.26786 l 7.55953,-10.20536 c -0.55649,4.8052 -0.66907,9.46244 -2.64584,14.74107 -0.44653,4.11234 -1.98468,5.49562 -3.40178,7.18155 l -3.02381,0.37797 c -1.23615,-1.44376 -0.29441,-3.14251 -0.18899,-5.48065 2.48296,-3.47497 2.91151,-4.08794 4.34673,-5.10268 l 10.96131,-16.63095 c -1.7372,5.94 -3.37723,11.76339 -2.64584,14.74107 l 7.18155,-14.74107 c 0.75595,0.12599 1.25992,1.76389 1.51191,4.91369 l 12.47321,-2.64583 -2.26786,13.60714 2.26786,-13.60714 L 158.75,122.375 c -1.6098,1.44719 -3.4688,3.69181 -2.64584,-2.64584 0.36551,-1.26335 1.40356,-4.03994 3.77977,-9.82738 2.52002,-0.92935 6.84172,-3.43517 5.66964,-1.13393 l 2.64583,1.88989 3.40179,-0.75596 -2.07887,14.93006 c 2.07887,-4.41071 5.10268,-12.6332 7.18155,-14.36309 -0.79643,4.12226 -1.47498,8.10251 0.18899,9.26041 2.89782,-4.15774 5.73263,-7.05555 6.61458,-7.18154 -2.16612,5.95073 -2.57485,8.92325 -2.26785,11.90624 v 0"
       id="path24"
       inkscape:connector-curvature="0"
       sodipodi:nodetypes="cscsssccssssscsssssscscsssccccccccccccccccccccccccccccccccccccccccccccccccccccccc"
       onload="settimeout(() =&gt; this.style.strokeDashoffset = &quot;0&quot;, 200)" />
  </g>
</svg>
